<?xml version="1.0" encoding="UTF-8"?> <svg xmlns="http://www.w3.org/2000/svg" width="80" height="57.99999999999999" xml:space="preserve" version="1.1"> <g> <title>Layer 1</title> <path id="svg_1" fill="#FDB913" d="m61.9,50.0398l-18.1,0c-0.5,0 -0.9,-0.4 -0.9,-0.9l0,-9.9c0,-0.5 0.4,-0.9 0.9,-0.9s0.9,0.4 0.9,0.9l0,8.9l16.3,0l0,-8.9c0,-0.5 0.4,-0.9 0.9,-0.9c0.5,0 0.9,0.4 0.9,0.9l0,9.9c0,0.5 -0.4,0.9 -0.9,0.9z" class="st0"></path> <path id="svg_2" fill="#FDB913" d="m9,40.4398c0.3,0.3 1.3,8.9 1.3,8.9l12,0l1.1,-8.6l-14.4,-0.3z" class="st0"></path> <g id="svg_3"> <path id="svg_4" fill="#261C02" d="m43.5,15.0398c0.5,0 0.9,-0.4 0.9,-0.9c0,0 0,-2.5 1.4,-3.6c0.7,-0.6 1.6,-0.8 2.8,-0.6c0.5,0.1 1,-0.3 1,-0.7c0.1,-0.5 -0.3,-1 -0.7,-1c-1.7,-0.3 -3.2,0 -4.2,1c-2,1.7 -2,4.9 -2,5c-0.2,0.4 0.3,0.8 0.8,0.8c0,0 0,0 0,0z" class="st1"></path> <path id="svg_5" fill="#261C02" d="m67.1,39.0398l-8.2,-1.1c-0.1,0 -0.2,-0.1 -0.2,-0.3l0,-4c4.3,-3.2 5.7,-9.7 5.8,-13.8c0.3,-1.3 3.2,-12.3 -0.7,-18c-0.2,-0.3 -0.7,-0.5 -1.1,-0.4c-0.1,0 -8.1,2.8 -14,1.8c-2.8,-0.4 -5.4,0.8 -7.2,3.3c-2.6,3.7 -2.7,8.9 -0.3,13.3c0,1.4 0.2,8.6 4.3,12.7c0.5,0.5 1,0.9 1.6,1.3l0,3.7c0,0.1 -0.1,0.2 -0.2,0.3l-8.4,1.1c-4.2,0.5 -7.4,4.2 -7.4,8.4l0,6.9l-8.2,0l2.2,-18c0.5,-0.1 0.9,-0.5 0.9,-1.1l0,-0.6c0,-1 -0.7,-1.8 -1.7,-2l-0.2,-1c-0.1,-0.8 -0.8,-1.3 -1.6,-1.3l-12.4,0c-0.8,0 -1.5,0.6 -1.6,1.3l-0.2,1c-0.9,0.2 -1.7,1 -1.7,2l0,0.6c0,0.5 0.4,1 0.9,1.1l2.2,18l-4.3,0l0,2l26.6,0l41.6,0l0.5,0l0,-0.1c0.2,-0.2 0.4,-0.4 0.4,-0.7l0,-8c0.1,-4.3 -3.1,-7.9 -7.4,-8.4zm-56.2,11.5l10.9,0l-0.4,3.2l-10.1,0l-0.4,-3.2zm-1.2,-18.6l12.9,0.1l0.1,0.7l-12.8,0l0.1,-0.7l-0.3,-0.1l0,0zm-1.4,2.7c0,-0.3 0.2,-0.5 0.4,-0.5l15.3,0c0.2,0 0.4,0.2 0.4,0.5l0,0.1l-16.1,-0.1l0,0zm0.8,1.7l14.4,0l-0.4,3.2l-13.6,0l-0.4,-3.2zm13.9,4.8l-1,7.9l-11.3,0l-1,-7.9l13.3,0zm49.7,6.3l0,6.9l-5.6,0l0,-13.5c3.2,0.5 5.6,3.3 5.6,6.6zm-30.1,-30.4c0,0 0,0.1 0,0c-0.2,0.2 -0.3,0.4 -0.4,0.5c0,0 0,0 0,0c0,0 0,0 0,0c-1.5,-3.9 -0.7,-7.7 0.9,-10c1.2,-1.7 2.8,-2.6 4.6,-2.6c0.3,0 0.5,0 0.8,0.1c5.4,0.8 12,-1 14.2,-1.7c2.2,4 1.2,10.6 0.5,14c-0.2,-0.4 -0.5,-0.9 -0.6,-1.3c-0.3,-0.9 -1,-1.6 -1.8,-2c-0.9,-0.4 -2,-0.5 -3,-0.1c-1.4,0.5 -3,0.7 -4.9,0.6c-0.6,0 -1.3,-0.1 -1.9,-0.2c-0.5,-0.1 -0.9,-0.1 -1.3,-0.1c-0.1,0 -0.2,0 -0.3,0c-0.4,0 -0.8,0 -1.1,0c0,0 -0.1,0 -0.1,0c-0.3,0 -0.7,0.1 -1,0.1c0,0 -0.1,0 -0.1,0c-0.3,0.1 -0.6,0.1 -0.9,0.2c-0.1,0 -0.1,0 -0.2,0.1c-0.3,0.1 -0.6,0.2 -0.8,0.3c0,0 0,0 0,0c-0.3,0.1 -0.5,0.3 -0.7,0.4c0,0 -0.1,0 -0.1,0.1c-0.2,0.1 -0.4,0.3 -0.6,0.4c0,0 0,0 0,0c-0.2,0.1 -0.3,0.3 -0.5,0.4c0,0 -0.1,0 -0.1,0.1c-0.3,0.4 -0.4,0.6 -0.6,0.7zm4.2,14.3c-3.6,-3.7 -3.8,-10.6 -3.8,-11.5c0,-0.1 0.1,-0.4 0.3,-0.7c0,0 0,0 0,0c0.1,-0.1 0.1,-0.2 0.2,-0.3c0,0 0,0 0,0c0.1,-0.1 0.1,-0.2 0.2,-0.3c0,0 0,0 0.1,-0.1c0.1,-0.1 0.2,-0.2 0.2,-0.3c0,0 0.1,-0.1 0.1,-0.1c0.1,-0.1 0.2,-0.2 0.3,-0.3c0,0 0.1,-0.1 0.1,-0.1c0.1,-0.1 0.2,-0.2 0.3,-0.3c0,0 0.1,-0.1 0.1,-0.1c0.1,-0.1 0.2,-0.2 0.4,-0.2c0.1,0 0.1,-0.1 0.2,-0.1c0.1,-0.1 0.3,-0.1 0.4,-0.2c0.1,0 0.1,-0.1 0.2,-0.1c0.2,-0.1 0.3,-0.1 0.5,-0.2c0.1,0 0.1,0 0.2,-0.1c0.2,0 0.4,-0.1 0.6,-0.1c0.1,0 0.2,0 0.2,0c0.2,0 0.4,-0.1 0.6,-0.1c0.1,0 0.2,0 0.3,0c0.2,0 0.5,0 0.8,0c0.1,0 0.2,0 0.2,0c0.4,0 0.7,0 1.1,0.1c0.7,0.1 1.4,0.2 2.1,0.2c2.1,0.1 3.9,-0.2 5.5,-0.7c0.5,-0.2 1.1,-0.2 1.6,0.1c0.1,0 0.2,0.1 0.2,0.1c0.2,0.2 0.5,0.4 0.7,0.9c0.5,1.5 1.1,2.6 1.8,3.3c-0.1,1.7 -0.7,9.5 -5.6,12.5c-0.1,0.1 -0.3,0.2 -0.4,0.2c-0.2,0.1 -0.4,0.2 -0.6,0.3c-0.2,0.1 -0.4,0.2 -0.6,0.2c-0.1,0 -0.2,0.1 -0.3,0.1c-0.3,0.1 -0.6,0.2 -1,0.2c-0.1,0 -0.2,0 -0.3,0c-0.4,0 -0.7,0.1 -1.1,0.1c-0.4,0 -0.7,0 -1,-0.1c-0.1,0 -0.1,0 -0.2,0c-0.3,0 -0.6,-0.1 -0.9,-0.2c0,0 0,0 0,0c-0.7,-0.2 -1.3,-0.4 -1.9,-0.8c0,0 -0.1,0 -0.1,0c-0.7,-0.4 -1.2,-0.8 -1.7,-1.3zm0.4,8.4c1,-0.1 1.8,-1 1.8,-2.1l0,-2.8c0.8,0.3 1.7,0.5 2.7,0.6c0.3,0 0.6,0 1,0c0.3,0 0.7,0 1,0c0.1,0 0.2,0 0.3,0c0.2,0 0.5,-0.1 0.7,-0.1c0.1,0 0.2,0 0.3,0c0.3,-0.1 0.6,-0.1 0.9,-0.2c0.1,0 0.1,0 0.2,-0.1c0.2,-0.1 0.4,-0.2 0.6,-0.2c0.1,0 0.1,0 0.2,-0.1l0,3c0,1 0.8,1.9 1.8,2.1c0,0 4.2,0.5 6.6,0.9l0,13.7l-24.9,0l0,-13.8l6.8,-0.9zm-14.2,7.7c0,-3.3 2.4,-6.1 5.6,-6.6l0,13.5l-5.6,0l0,-6.9z" class="st1"></path> </g> </g> </svg> 