<?xml version="1.0" encoding="UTF-8"?> <svg xmlns="http://www.w3.org/2000/svg" width="80" height="40" xml:space="preserve" version="1.1"> <g> <title>Layer 1</title> <path id="svg_1" fill="#261C02" d="m38.6,4.73847l-1.3,0l-0.6,-3.1l-21.9,0l-0.6,3.1l-1.3,0l0,4.9l0.9,0l2.7,28.9l18.6,0l2.6,-28.9l0.9,0l0,-4.9zm-3.2,-1.5l0.3,1.5l-19.8,0l0.3,-1.5l19.2,0zm-1.8,33.7l-15.7,0l-2.5,-27.3l1.8,0l0,-1.6l-2.7,0l0,-1.7l1,0l20.5,0l0.7,0l0.3,0l0,1.7l-18.6,0l0,1.6l17.7,0l-2.5,27.3z" class="st0"></path> <path id="svg_2" fill="#261C02" d="m67.1,4.73847l-1.3,0l-0.6,-3.1l-21.9,0l-0.6,3.1l-1.3,0l0,4.9l0.9,0l2.6,28.9l18.6,0l2.6,-28.9l0.9,0l0,-4.9l0.1,0zm-3.2,-1.5l0.3,1.5l-19.9,0l0.3,-1.5l19.3,0zm-1.8,33.7l-15.7,0l-2.5,-27.3l1.8,0l0,-1.6l-2.7,0l0,-1.7l1,0l20.4,0l0.7,0l0.4,0l0,1.7l-18.7,0l0,1.6l17.7,0l-2.4,27.3z" class="st0"></path> <g id="svg_3"> <rect id="svg_4" fill="#261C02" height="2" width="68.7" class="st0" y="36.63847" x="5.6"></rect> </g> <rect id="svg_5" stroke-miterlimit="10" stroke="#261C02" fill="#AB1D37" height="10.6" width="60" class="st1" y="16.73847" x="10"></rect> </g> </svg> 