<?xml version="1.0" encoding="UTF-8"?> <svg xmlns="http://www.w3.org/2000/svg" id="icon-drivein" width="48.751" height="47.968" viewBox="0 0 48.751 47.968"><g id="Group_1363" data-name="Group 1363" transform="translate(5.33 0.762)"><rect id="Rectangle_2184" data-name="Rectangle 2184" width="33.501" height="8.375" transform="translate(0 0)" fill="#fdb913"></rect></g><g id="Group_1364" data-name="Group 1364" transform="translate(0 46.445)"><rect id="Rectangle_2185" data-name="Rectangle 2185" width="48.751" height="1.523" fill="#261c02"></rect></g><g id="Group_1365" data-name="Group 1365" transform="translate(0 10.592)"><path id="Path_2390" data-name="Path 2390" d="M1102.866,679.215H1054.9v-1.523h46.445V676.1H1054.9v-1.523h47.968Z" transform="translate(-1054.898 -674.579)" fill="#261c02"></path></g><g id="Group_1366" data-name="Group 1366" transform="translate(4.569 0)"><path id="Path_2391" data-name="Path 2391" d="M1065.65,669.9h-1.523v-2.284h-2.284v-9.137h35.023v9.137h-29.694v-1.523h28.171V660h-31.978v6.091h2.284Z" transform="translate(-1061.843 -658.479)" fill="#261c02"></path></g><g id="Group_1367" data-name="Group 1367" transform="translate(35.405 8.375)"><rect id="Rectangle_2186" data-name="Rectangle 2186" width="1.523" height="3.045" fill="#261c02"></rect></g><path id="Line_67" data-name="Line 67" d="M1.523,1.157H0V-1.157H1.523Z" transform="translate(18.273 4.569)" fill="#261c02"></path><path id="Line_68" data-name="Line 68" d="M1.523,1.157H0V-1.157H1.523Z" transform="translate(21.319 4.569)" fill="#261c02"></path><path id="Line_69" data-name="Line 69" d="M1.523,1.157H0V-1.157H1.523Z" transform="translate(24.365 4.569)" fill="#261c02"></path><g id="Group_1368" data-name="Group 1368" transform="translate(0.507 16.751)"><rect id="Rectangle_2187" data-name="Rectangle 2187" width="7.868" height="1.523" transform="translate(0)" fill="#261c02"></rect></g><g id="Group_1377" data-name="Group 1377" transform="translate(12.183 28.151)"><g id="Group_1369" data-name="Group 1369" transform="translate(12.182)"><path id="Path_2392" data-name="Path 2392" d="M1114.012,718.016h-1.522v-1.523h1.522a.762.762,0,0,0,.761-.762v-4.125l-3.923-8.815-18.917.02v-1.522l19.907-.021,4.458,10.015v4.449A2.287,2.287,0,0,1,1114.012,718.016Z" transform="translate(-1091.932 -701.268)" fill="#261c02"></path></g><g id="Group_1370" data-name="Group 1370" transform="translate(0 2.303)"><path id="Path_2393" data-name="Path 2393" d="M1077.83,719.238h-2.13a2.287,2.287,0,0,1-2.284-2.285v-7.624h9.486l2.7-4.118v-.442h1.522v.9l-3.4,5.188h-8.787v6.1a.763.763,0,0,0,.762.762h2.13Z" transform="translate(-1073.416 -704.769)" fill="#261c02"></path></g><g id="Group_1371" data-name="Group 1371" transform="translate(10.537 15.225)"><rect id="Rectangle_2188" data-name="Rectangle 2188" width="16.124" height="1.523" fill="#261c02"></rect></g><g id="Group_1372" data-name="Group 1372" transform="translate(3.807 12.203)"><path id="Path_2394" data-name="Path 2394" d="M1083.009,727.431a3.807,3.807,0,1,1,3.807-3.807A3.811,3.811,0,0,1,1083.009,727.431Zm0-6.092a2.284,2.284,0,1,0,2.284,2.285A2.286,2.286,0,0,0,1083.009,721.339Z" transform="translate(-1079.202 -719.816)" fill="#261c02"></path></g><g id="Group_1373" data-name="Group 1373" transform="translate(25.887 12.203)"><path id="Path_2395" data-name="Path 2395" d="M1116.57,727.431a3.807,3.807,0,1,1,3.807-3.807A3.811,3.811,0,0,1,1116.57,727.431Zm0-6.092a2.284,2.284,0,1,0,2.284,2.285A2.287,2.287,0,0,0,1116.57,721.339Z" transform="translate(-1112.764 -719.816)" fill="#261c02"></path></g><g id="Group_1374" data-name="Group 1374" transform="translate(9.787 0.546)"><path id="Path_2396" data-name="Path 2396" d="M1088.293,709.938v-1.523l18.041-.012a1.2,1.2,0,0,0,1.16-1.5l-1.858-4.19,1.392-.616,1.914,4.33a2.722,2.722,0,0,1-2.606,3.5Z" transform="translate(-1088.292 -702.098)" fill="#261c02"></path></g><g id="Group_1375" data-name="Group 1375" transform="translate(22.841 0.782)"><rect id="Rectangle_2189" data-name="Rectangle 2189" width="1.523" height="6.713" fill="#261c02"></rect></g><g id="Group_1376" data-name="Group 1376" transform="translate(22.841 9.919)"><rect id="Rectangle_2190" data-name="Rectangle 2190" width="1.523" height="6.075" fill="#261c02"></rect></g></g><g id="Group_1378" data-name="Group 1378" transform="translate(0.729 35.024)"><rect id="Rectangle_2191" data-name="Rectangle 2191" width="9.931" height="1.523" transform="translate(0 0)" fill="#261c02"></rect></g><g id="Group_1379" data-name="Group 1379" transform="translate(13.324 38.831)"><rect id="Rectangle_2192" data-name="Rectangle 2192" width="1.523" height="3.045" transform="translate(0 0)" fill="#261c02"></rect></g><g id="Group_1380" data-name="Group 1380" transform="translate(19.035 43.399)"><ellipse id="Ellipse_36" data-name="Ellipse 36" cx="0.761" cy="0.761" rx="0.761" ry="0.761" transform="translate(0 0)" fill="#261c02"></ellipse></g><g id="Group_1381" data-name="Group 1381" transform="translate(41.115 43.399)"><ellipse id="Ellipse_37" data-name="Ellipse 37" cx="0.761" cy="0.761" rx="0.761" ry="0.761" transform="translate(0 0)" fill="#261c02"></ellipse></g><g id="Group_1382" data-name="Group 1382" transform="translate(0.729 16.751)"><path id="Path_2397" data-name="Path 2397" d="M1088.017,700.69h-32.011v-1.522h6.886V683.94h25.125Zm-23.6-1.522h22.08v-13.7h-22.08Z" transform="translate(-1056.006 -683.94)" fill="#261c02"></path></g></svg> 