<?xml version="1.0" encoding="UTF-8"?> <svg xmlns="http://www.w3.org/2000/svg" id="icon-delivery" width="57.125" height="33.312" viewBox="0 0 57.125 33.312"><path id="Path_2373" data-name="Path 2373" d="M1550.164,725.071a7.3,7.3,0,1,1,7.3-7.3A7.3,7.3,0,0,1,1550.164,725.071Zm0-13.315a6.019,6.019,0,1,0,6.019,6.019A6.026,6.026,0,0,0,1550.164,711.755Z" transform="translate(-1505.647 -692.797)" fill="#4c4c4c"></path><path id="Path_2374" data-name="Path 2374" d="M1509.728,725.071a7.3,7.3,0,1,1,7.3-7.3A7.3,7.3,0,0,1,1509.728,725.071Zm0-13.315a6.019,6.019,0,1,0,6.019,6.019A6.026,6.026,0,0,0,1509.728,711.755Z" transform="translate(-1496.01 -692.797)" fill="#4c4c4c"></path><path id="Path_2375" data-name="Path 2375" d="M1542.6,696.234a4.28,4.28,0,0,1,0-8.56.639.639,0,0,1,.639.638V695.6A.639.639,0,0,1,1542.6,696.234Zm-.638-7.214a3,3,0,0,0,0,5.869Z" transform="translate(-1504.563 -687.362)" fill="#261c02"></path><path id="Path_2376" data-name="Path 2376" d="M1543.736,695.925a.639.639,0,0,1-.638-.639V688.9a.638.638,0,0,1,.638-.638,3.83,3.83,0,1,1,0,7.659Zm.639-6.3v4.944a2.553,2.553,0,0,0,0-4.944Z" transform="translate(-1505.702 -687.503)" fill="#261c02"></path><path id="Path_2377" data-name="Path 2377" d="M1550.164,725.071a7.3,7.3,0,1,1,7.3-7.3A7.3,7.3,0,0,1,1550.164,725.071Zm0-13.315a6.019,6.019,0,1,0,6.019,6.019A6.026,6.026,0,0,0,1550.164,711.755Z" transform="translate(-1505.647 -692.797)" fill="#261c02"></path><path id="Path_2378" data-name="Path 2378" d="M1551.323,722.525a3.592,3.592,0,1,1,3.592-3.591A3.6,3.6,0,0,1,1551.323,722.525Zm0-5.906a2.315,2.315,0,1,0,2.315,2.315A2.317,2.317,0,0,0,1551.323,716.619Z" transform="translate(-1506.806 -693.956)" fill="#4c4c4c"></path><path id="Path_2379" data-name="Path 2379" d="M1551.323,722.525a3.592,3.592,0,1,1,3.592-3.591A3.6,3.6,0,0,1,1551.323,722.525Zm0-5.906a2.315,2.315,0,1,0,2.315,2.315A2.317,2.317,0,0,0,1551.323,716.619Z" transform="translate(-1506.806 -693.956)" fill="#261c02"></path><path id="Path_2380" data-name="Path 2380" d="M1510.972,722.525a3.592,3.592,0,1,1,3.592-3.591A3.6,3.6,0,0,1,1510.972,722.525Zm0-5.906a2.315,2.315,0,1,0,2.315,2.315A2.317,2.317,0,0,0,1510.972,716.619Z" transform="translate(-1497.189 -693.956)" fill="#261c02"></path><path id="Path_2381" data-name="Path 2381" d="M1509.728,725.071a7.3,7.3,0,1,1,7.3-7.3A7.3,7.3,0,0,1,1509.728,725.071Zm0-13.315a6.019,6.019,0,1,0,6.019,6.019A6.026,6.026,0,0,0,1509.728,711.755Z" transform="translate(-1496.01 -692.797)" fill="#261c02"></path><path id="Path_2382" data-name="Path 2382" d="M1533.981,715.131h-17.5a.639.639,0,0,1-.638-.66l.005-.2a6.018,6.018,0,0,0-11.2-3.067.638.638,0,0,1-1.162-.146l-.59-2.013a.632.632,0,0,1-.026-.18V701.9a.638.638,0,0,1,.638-.638h16.194a.638.638,0,0,1,.638.638v6.532a2.092,2.092,0,0,0,2.089,2.09H1530a2.09,2.09,0,0,0,2.079-2.3l-1.2-11.759a.638.638,0,0,1,1.1-.506,2.981,2.981,0,0,0,2.166.926h.216a4.66,4.66,0,0,1,4.178,2.571l4.046,8.013a.639.639,0,0,1-.7.912,6.019,6.019,0,0,0-7.275,5.887l0,.153a.7.7,0,0,1-.178.491A.661.661,0,0,1,1533.981,715.131Zm-16.862-1.277h16.229a7.333,7.333,0,0,1,7.563-6.878l-3.507-6.945a3.388,3.388,0,0,0-3.038-1.869h-.216a4.253,4.253,0,0,1-1.848-.417l1.052,10.35A3.367,3.367,0,0,1,1530,711.8h-7.567a3.371,3.371,0,0,1-3.367-3.367v-5.893h-14.915v6.227l.2.683a7.293,7.293,0,0,1,12.763,4.4Z" transform="translate(-1496.116 -689.289)" fill="#261c02"></path><path id="Path_2383" data-name="Path 2383" d="M1524.785,703.528h-9.41a1.815,1.815,0,1,1,0-3.63h9.41a1.815,1.815,0,1,1,0,3.63Zm-9.41-2.353a.538.538,0,1,0,0,1.075h9.41a.538.538,0,1,0,0-1.075Z" transform="translate(-1498.662 -690.275)" fill="#261c02"></path><path id="Path_2384" data-name="Path 2384" d="M1534.595,694.669a.639.639,0,0,1-.3-1.2l3.386-1.823a.638.638,0,1,1,.605,1.124l-3.385,1.824A.648.648,0,0,1,1534.595,694.669Z" transform="translate(-1503.523 -688.29)" fill="#261c02"></path><path id="Path_2385" data-name="Path 2385" d="M1546.457,708.793a.64.64,0,0,1-.6-.408l-1.754-4.529a.639.639,0,0,1,1.191-.462l1.754,4.529a.639.639,0,0,1-.365.826A.63.63,0,0,1,1546.457,708.793Z" transform="translate(-1505.932 -691.011)" fill="#261c02"></path><path id="Path_2386" data-name="Path 2386" d="M1522.344,708.1h-7.776a.639.639,0,0,1,0-1.277h7.776a.639.639,0,0,1,0,1.277Z" transform="translate(-1498.75 -691.925)" fill="#261c02"></path><path id="Path_2387" data-name="Path 2387" d="M1507.369,704.264h-9.308a.639.639,0,0,1,0-1.277h9.308a.639.639,0,0,1,0,1.277Z" transform="translate(-1494.816 -691.011)" fill="#4c4c4c"></path><path id="Path_2388" data-name="Path 2388" d="M1507.455,700.517h-12.817a.639.639,0,0,1-.638-.639V687.9a.638.638,0,0,1,.638-.638h12.817a.639.639,0,0,1,.639.638v11.976A.639.639,0,0,1,1507.455,700.517Z" transform="translate(-1494 -687.264)" fill="#45a39f"></path><path id="Path_2389" data-name="Path 2389" d="M1507.455,700.517h-12.817a.639.639,0,0,1-.638-.639V687.9a.638.638,0,0,1,.638-.638h12.817a.639.639,0,0,1,.639.638v11.976A.639.639,0,0,1,1507.455,700.517Zm-12.177-1.277h11.539v-10.7h-11.539Z" transform="translate(-1494 -687.264)" fill="#261c02"></path><g id="Group_1361" data-name="Group 1361" transform="translate(0 31.789)"><rect id="Rectangle_2183" data-name="Rectangle 2183" width="57.125" height="1.523" fill="#261c02"></rect></g></svg> 