<?xml version="1.0" encoding="UTF-8"?> <svg xmlns="http://www.w3.org/2000/svg" id="icon-tables" width="43.197" height="42.52" viewBox="0 0 43.197 42.52"><g id="Group_1384" data-name="Group 1384" transform="translate(0.675 0.691)"><path id="Path_2398" data-name="Path 2398" d="M1393.171,664.181l1.012,1.349h16.529l1.012-1.349h.675l1.012,1.349h17.2l1.012-1.349v-2.7l-19.564-4.048-18.89,4.331Z" transform="translate(-1393.171 -657.435)" fill="#b5c3b3"></path></g><g id="Group_1387" data-name="Group 1387" transform="translate(9.445 23.629)"><g id="Group_1385" data-name="Group 1385"><path id="Path_2399" data-name="Path 2399" d="M1419.193,712.1h-1.349V699.96h8.1v-1.35h-16.192v1.35h6.747v1.349h-8.1v-4.048h18.889v4.048h-8.1Z" transform="translate(-1408.399 -697.261)" fill="#261c02"></path></g><g id="Group_1386" data-name="Group 1386" transform="translate(6.408 14.505)"><path id="Path_2400" data-name="Path 2400" d="M1426.947,726.829h-7.421v-1.291l3.093-3.094h1.234l3.093,3.094Zm-5.454-1.349h3.489l-1.686-1.687h-.116Z" transform="translate(-1419.526 -722.444)" fill="#261c02"></path></g></g><g id="Group_1388" data-name="Group 1388" transform="translate(0 41.17)"><rect id="Rectangle_2193" data-name="Rectangle 2193" width="43.197" height="1.349" fill="#261c02"></rect></g><g id="Group_1391" data-name="Group 1391" transform="translate(2.699 20.931)"><g id="Group_1389" data-name="Group 1389"><path id="Path_2401" data-name="Path 2401" d="M1408.155,714.164h-1.349v-7.725a1.723,1.723,0,0,0-1.721-1.721h-6.966l-1.433-10.794v-1.349h1.348v1.3l1.266,9.49h5.785a3.073,3.073,0,0,1,3.07,3.07Z" transform="translate(-1396.686 -692.575)" fill="#261c02"></path></g><g id="Group_1390" data-name="Group 1390" transform="translate(0.675 11.421)"><path id="Path_2402" data-name="Path 2402" d="M1399.206,722.572h-1.349V721.9l.676-9.493,1.345.1-.675,9.445Z" transform="translate(-1397.857 -712.404)" fill="#261c02"></path></g></g><g id="Group_1394" data-name="Group 1394" transform="translate(28.617 20.931)"><g id="Group_1392" data-name="Group 1392"><path id="Path_2403" data-name="Path 2403" d="M1441.686,714.164h1.348v-7.725a1.723,1.723,0,0,1,1.721-1.721h6.965l1.434-10.794v-1.349h-1.349v1.3l-1.266,9.49h-5.784a3.073,3.073,0,0,0-3.07,3.07Z" transform="translate(-1441.686 -692.575)" fill="#261c02"></path></g><g id="Group_1393" data-name="Group 1393" transform="translate(8.772 11.421)"><path id="Path_2404" data-name="Path 2404" d="M1457.588,722.572h1.349V721.9l-.676-9.493-1.345.1.674,9.445Z" transform="translate(-1456.916 -712.404)" fill="#261c02"></path></g></g><g id="Group_1395" data-name="Group 1395" transform="translate(18.89 10.588)"><rect id="Rectangle_2194" data-name="Rectangle 2194" width="1.349" height="13.716" fill="#261c02"></rect></g><g id="Group_1396" data-name="Group 1396" transform="translate(18.89 1.028)"><rect id="Rectangle_2195" data-name="Rectangle 2195" width="1.349" height="4.259" fill="#261c02"></rect></g><g id="Group_1397" data-name="Group 1397" transform="translate(12.819 18.907)"><path id="Path_2405" data-name="Path 2405" d="M1418.3,695.133h-4.047v-6.071h4.047Zm-2.7-1.349h1.349V690.41H1415.6Z" transform="translate(-1414.256 -689.062)" fill="#261c02"></path></g><path id="Path_2406" data-name="Path 2406" d="M1411.557,656.235,1392,660.719V663.9l1.35,1.8h17.2l1.012-1.349,1.012,1.349h17.879l1.348-1.8v-3.473Zm18.9,7.213-.7.929-15.416-.029h-1.091L1412.24,663h-1.35l-1.012,1.348h-15.854l-.675-.9V661.8l18.223-4.179,18.884,3.907Z" transform="translate(-1392 -656.235)" fill="#261c02"></path></svg> 