<?xml version="1.0" encoding="UTF-8"?> <svg xmlns="http://www.w3.org/2000/svg" width="306.82" height="148.758" viewBox="0 0 306.82 148.758"><g id="mikel_text_footer" transform="translate(-278.29 -57.242)"><path id="Path_2604" data-name="Path 2604" d="M32.306,0H43.442V-37.758H32.306L28.072-29.87c-1.566,2.958-3.19,5.916-4.7,8.932h-.348c-1.508-2.9-3.19-5.916-4.756-8.874l-4.35-7.946H2.9V0H13.92V-16.356h.232c1.218,2.436,2.61,4.756,3.886,7.25L23.084.058,28.13-9.048c1.334-2.436,2.668-4.872,3.944-7.308h.232ZM46.922,0H58.348V-37.758H46.922ZM96.686-37.758h-12.7L73.312-24.3h-.174V-37.758H61.828V0h11.31V-9.628L77.72-15.08,85.144,0H97.788L85.2-24.012ZM97.5,0h30.276V-9.4h-18.85v-5.336H121.51V-23.78H108.924v-4.582h18.27v-9.4H97.5Zm31.436,0H157.7V-9.338H140.3v-28.42H128.934ZM22.272,26.638H32.828v-9.4H.29v9.4H10.9V55H22.272ZM55.912,55H67.28V17.242H55.912v13.92H44.486V17.242H33.118V55H44.486V40.5H55.912ZM70.18,55h30.276V45.6H81.606V40.268H94.192V31.22H81.606V26.638h18.27v-9.4H70.18Zm45.356-19.2c0,12.006,5.858,19.894,17.806,19.894,7.482,0,12.18-3.654,14.674-7.424l-8.352-6.5c-1.972,3.074-4.176,3.886-6.322,3.886-4.176,0-6.032-4.466-6.032-9.628s1.856-9.4,6.032-9.4c1.914,0,3.77.522,5.684,3.364l8.236-6.5c-2.494-3.77-6.438-6.9-13.92-6.9C121.394,16.6,115.536,24.782,115.536,35.8ZM165.3,55.7c12.006,0,17.922-7.482,17.922-19.488,0-11.89-5.858-19.6-17.748-19.6-11.948,0-17.806,7.656-17.806,19.662C147.668,47.982,153.468,55.7,165.3,55.7Zm0-29.232c4.408,0,6.09,4.176,6.09,9.628,0,5.22-1.682,9.8-5.916,9.8-4.118,0-6.032-4.06-6.032-9.86C159.442,30.872,161.124,26.464,165.3,26.464ZM185.542,55H196.91l.058-13.456h12.76V32.38h-12.76V26.638H214.89v-9.4H185.542Zm29.928,0h11.368l.058-13.456h12.76V32.38H226.9V26.638h17.922v-9.4H215.47ZM245.4,55h30.276V45.6h-18.85V40.268H269.41V31.22H256.824V26.638h18.27v-9.4H245.4Zm31.436,0H307.11V45.6H288.26V40.268h12.586V31.22H288.26V26.638h18.27v-9.4h-29.7ZM2.32,90.8c0,12.006,5.858,19.894,17.806,19.894,7.482,0,12.18-3.654,14.674-7.424l-8.352-6.5c-1.972,3.074-4.176,3.886-6.322,3.886-4.176,0-6.032-4.466-6.032-9.628s1.856-9.4,6.032-9.4c1.914,0,3.77.522,5.684,3.364l8.236-6.5c-2.494-3.77-6.438-6.9-13.92-6.9C8.178,71.6,2.32,79.782,2.32,90.8ZM52.084,110.7c12.006,0,17.922-7.482,17.922-19.488,0-11.89-5.858-19.6-17.748-19.6-11.948,0-17.806,7.656-17.806,19.662C34.452,102.982,40.252,110.7,52.084,110.7Zm0-29.232c4.408,0,6.09,4.176,6.09,9.628,0,5.22-1.682,9.8-5.916,9.8-4.118,0-6.032-4.06-6.032-9.86C46.226,85.872,47.908,81.464,52.084,81.464ZM101.732,110h11.136V72.242H101.732L97.5,80.13c-1.566,2.958-3.19,5.916-4.7,8.932h-.348c-1.508-2.9-3.19-5.916-4.756-8.874l-4.35-7.946H72.326V110h11.02V93.644h.232c1.218,2.436,2.61,4.756,3.886,7.25l5.046,9.164,5.046-9.106c1.334-2.436,2.668-4.872,3.944-7.308h.232ZM133.11,97.878c8.236,0,14.326-4.524,14.326-13.05s-5.916-12.586-13.862-12.586H115.768V110h11.426V97.878Zm-2.03-16.24c2.03,0,4.466.406,4.466,3.364,0,3.19-2.2,3.538-4.582,3.538h-3.828v-6.9ZM169.824,110H182L168.548,72.242h-13.4L141.636,110H153.41l2.088-7.018h12.18ZM161.7,82.8l1.856,6.5,1.682,5.626h-7.25l1.624-5.452,1.914-6.67ZM207.292,110h9.918V72.242H205.958V91.034h-.232c-2.146-3.248-4.234-6.264-6.38-9.4l-6.786-9.4H182.12V110h11.194V90.164h.174l6.032,8.99ZM243.02,97.472l14.442-25.23H245.34l-3.828,8c-1.392,2.9-2.668,5.452-4.118,8.7-1.276-2.842-2.668-5.626-4-8.41l-4-8.294H217.152l14.442,25.346V110H243.02Z" transform="translate(278 95)" fill="#1c1406"></path><circle id="Ellipse_43" data-name="Ellipse 43" cx="7" cy="7" r="7" transform="translate(536 192)" fill="#ab0634"></circle></g></svg> 